<svg width="461" height="480" viewBox="0 0 461 480" fill="none" xmlns="http://www.w3.org/2000/svg">
<path d="M236.9 0C113.3 0 13.2 100.1 13.2 223.7C13.2 273.5 29.5 319.5 57 356.7L0 480L14.9 473.1L129.7 420.1C161.5 437.5 198 447.4 236.8 447.4C360.3 447.4 460.5 347.3 460.5 223.7C460.6 100.1 360.4 0 236.9 0ZM356.2 319.2C354.9 325.4 352.2 331.3 348.3 336.5C343.5 342.9 337.3 347.7 330.2 350.7C323.1 353.7 315.3 354.9 307.5 353.9C286.6 351.4 266.4 344.7 248.3 333.9C227.4 321.5 199.3 302.2 178.1 274.6C155.5 248.1 143.2 217.1 135.4 194C128.7 174.1 126.3 152.9 128.2 132C128.9 124.1 131.7 116.7 136.1 110.4C140.5 104.1 146.6 99 153.8 95.7C159.7 92.9 166.1 91.6 172.4 91.6C181.4 91.6 192.4 91.5 200 96.9C211.8 105.2 216.8 121.6 216.8 136C216.8 137.3 216.7 138.7 216.6 140C215.9 147.9 215.2 154.8 210.7 161.1C206.3 167.4 198.2 172.9 191 176.3C196.5 205.9 206 227.9 219.1 242.1C224.7 249.9 232.3 257.3 242 264.2C251.7 271.1 263.4 277.4 277.3 283.2C282.1 276.9 289.2 270.1 296.3 267.1C303.3 264.1 310.3 264.8 318.1 265.8C319.4 266 320.8 266.2 322.1 266.5C336.1 269.5 351.1 277.8 356.8 291.1C360.4 299.7 358.1 310.4 356.2 319.2Z" fill="#34A853"/>
</svg>
